<svg viewBox="0 0 1283 202" fill="none" xmlns="http://www.w3.org/2000/svg">
<path d="M0.791504 199V168.625L69.4165 107.875C76.9165 101.425 80.6665 95.05 80.6665 88.75C80.6665 76 73.1665 69.625 58.1665 69.625C51.8665 69.625 46.6165 71.275 42.4165 74.575C38.2165 77.875 35.5915 82.6 34.5415 88.75H0.791504C2.5915 74.05 8.2165 62.125 17.6665 52.975C27.1165 43.825 40.6165 39.25 58.1665 39.25C77.0665 39.25 91.3165 43.6 100.917 52.3C110.667 60.85 115.542 72.25 115.542 86.5C115.542 100.9 108.417 114.4 94.1665 127L46.9165 168.625H117.792V199H0.791504ZM248.11 180.55C236.11 194.35 219.685 201.25 198.835 201.25C177.985 201.25 161.485 194.35 149.335 180.55C137.335 166.75 131.335 146.65 131.335 120.25C131.335 93.85 137.335 73.75 149.335 59.95C161.485 46.15 177.985 39.25 198.835 39.25C219.685 39.25 236.11 46.15 248.11 59.95C260.26 73.75 266.335 93.85 266.335 120.25C266.335 146.65 260.26 166.75 248.11 180.55ZM174.76 158.05C181.21 166.6 189.235 170.875 198.835 170.875C208.435 170.875 216.46 166.6 222.91 158.05C229.36 149.35 232.585 136.75 232.585 120.25C232.585 103.75 229.36 91.225 222.91 82.675C216.46 73.975 208.435 69.625 198.835 69.625C189.235 69.625 181.21 73.975 174.76 82.675C168.31 91.225 165.085 103.75 165.085 120.25C165.085 136.75 168.31 149.35 174.76 158.05ZM360.665 201.8C341.065 201.8 324.452 196.48 310.825 185.84C297.385 175.2 289.265 159.987 286.465 140.2H328.465C329.958 147.293 333.412 153.08 338.825 157.56C344.238 161.853 351.052 164 359.265 164C370.278 164 378.585 161.2 384.185 155.6C389.972 149.813 392.865 141.88 392.865 131.8C392.865 122.84 389.878 115.28 383.905 109.12C378.118 102.773 369.905 99.6 359.265 99.6C346.572 99.6 336.772 104.733 329.865 115H289.265L300.465 2.99999H423.665V39.4H335.465L331.265 75.8H332.665C341.812 69.2667 353.945 66 369.065 66C388.292 66 404.065 72.2533 416.385 84.76C428.705 97.08 434.865 113.227 434.865 133.2C434.865 152.987 428.332 169.413 415.265 182.48C402.385 195.36 384.185 201.8 360.665 201.8ZM505.556 155.6C511.53 161.2 519.743 164 530.196 164C540.65 164 548.863 161.2 554.836 155.6C560.81 149.813 563.796 142.347 563.796 133.2C563.796 123.68 560.53 115.933 553.996 109.96C547.463 103.987 539.53 101 530.196 101C519.743 101 511.53 103.893 505.556 109.68C499.583 115.467 496.596 123.307 496.596 133.2C496.596 142.347 499.583 149.813 505.556 155.6ZM530.196 201.8C507.423 201.8 489.13 195.267 475.316 182.2C461.503 169.133 454.596 152.333 454.596 131.8C454.596 113.693 461.596 93.6267 475.596 71.6L518.996 2.99999H565.196L523.196 68.8H524.596C527.396 67.8667 532.063 67.4 538.596 67.4C559.13 67.4 575.463 73.6533 587.596 86.16C599.73 98.6667 605.796 114.347 605.796 133.2C605.796 153.36 598.983 169.88 585.356 182.76C571.916 195.453 553.53 201.8 530.196 201.8ZM654.395 194.95C650.945 198.4 646.67 200.125 641.57 200.125C636.47 200.125 632.195 198.4 628.745 194.95C625.295 191.5 623.57 187.225 623.57 182.125C623.57 177.025 625.295 172.75 628.745 169.3C632.195 165.85 636.47 164.125 641.57 164.125C646.67 164.125 650.945 165.85 654.395 169.3C657.845 172.75 659.57 177.025 659.57 182.125C659.57 187.225 657.845 191.5 654.395 194.95ZM717.5 167.5C722.3 171.25 728.9 173.125 737.3 173.125C745.7 173.125 752.3 171.25 757.1 167.5C761.9 163.75 764.3 158.5 764.3 151.75C764.3 145 761.9 139.75 757.1 136C752.3 132.25 745.7 130.375 737.3 130.375C728.9 130.375 722.3 132.25 717.5 136C712.7 139.75 710.3 145 710.3 151.75C710.3 158.5 712.7 163.75 717.5 167.5ZM782.3 188.2C771.8 196.9 756.8 201.25 737.3 201.25C717.8 201.25 702.8 196.9 692.3 188.2C681.8 179.5 676.55 168.1 676.55 154C676.55 145.9 678.875 138.625 683.525 132.175C688.325 125.725 694.25 121 701.3 118C695.6 114.85 690.575 110.275 686.225 104.275C682.025 98.275 679.925 91.6 679.925 84.25C679.925 70.45 685.175 59.5 695.675 51.4C706.325 43.3 720.2 39.25 737.3 39.25C754.4 39.25 768.2 43.3 778.7 51.4C789.35 59.5 794.675 70.45 794.675 84.25C794.675 91.6 792.5 98.275 788.15 104.275C783.95 110.275 779 114.85 773.3 118C780.35 121 786.2 125.725 790.85 132.175C795.65 138.625 798.05 145.9 798.05 154C798.05 168.1 792.8 179.5 782.3 188.2ZM719.75 100.45C723.8 103.9 729.65 105.625 737.3 105.625C744.95 105.625 750.8 103.9 754.85 100.45C758.9 97 760.925 92.35 760.925 86.5C760.925 80.65 758.9 76 754.85 72.55C750.8 69.1 744.95 67.375 737.3 67.375C729.65 67.375 723.8 69.1 719.75 72.55C715.7 76 713.675 80.65 713.675 86.5C713.675 92.35 715.7 97 719.75 100.45ZM825.182 199L881.432 71.875H808.307V41.5H917.432V71.875L861.182 199H825.182ZM944.873 194.95C941.423 198.4 937.148 200.125 932.048 200.125C926.948 200.125 922.673 198.4 919.223 194.95C915.773 191.5 914.048 187.225 914.048 182.125C914.048 177.025 915.773 172.75 919.223 169.3C922.673 165.85 926.948 164.125 932.048 164.125C937.148 164.125 941.423 165.85 944.873 169.3C948.323 172.75 950.048 177.025 950.048 182.125C950.048 187.225 948.323 191.5 944.873 194.95ZM967.829 199V161.2L1053.23 85.6C1062.56 77.5733 1067.23 69.64 1067.23 61.8C1067.23 45.9333 1057.9 38 1039.23 38C1031.39 38 1024.86 40.0533 1019.63 44.16C1014.4 48.2667 1011.14 54.1467 1009.83 61.8H967.829C970.069 43.5067 977.069 28.6667 988.829 17.28C1000.59 5.89332 1017.39 0.199989 1039.23 0.199989C1062.75 0.199989 1080.48 5.61333 1092.43 16.44C1104.56 27.08 1110.63 41.2667 1110.63 59C1110.63 76.92 1101.76 93.72 1084.03 109.4L1025.23 161.2H1113.43V199H967.829ZM1209.95 201.8C1187.74 201.8 1169.26 196.853 1154.51 186.96C1139.95 176.88 1132.3 161.293 1131.55 140.2H1173.55C1176.17 156.067 1187.83 164 1208.55 164C1230.02 164 1240.75 156.533 1240.75 141.6C1240.75 133.947 1237.86 128.067 1232.07 123.96C1226.29 119.853 1218.45 117.8 1208.55 117.8H1191.75V82.8H1208.55C1218.07 82.8 1225.35 80.7467 1230.39 76.64C1235.43 72.3467 1237.95 66.9333 1237.95 60.4C1237.95 53.8667 1235.43 48.5467 1230.39 44.44C1225.35 40.1467 1218.07 38 1208.55 38C1200.34 38 1193.25 39.96 1187.27 43.88C1181.3 47.8 1177.66 53.7733 1176.35 61.8H1134.35C1136.41 41.8267 1144.15 26.6133 1157.59 16.16C1171.03 5.51999 1188.49 0.199989 1209.95 0.199989C1230.67 0.199989 1247.47 5.23999 1260.35 15.32C1273.42 25.4 1279.95 39.0267 1279.95 56.2C1279.95 77.2933 1269.69 91.76 1249.15 99.6C1259.42 103.333 1267.54 109.12 1273.51 116.96C1279.67 124.8 1282.75 134.413 1282.75 145.8C1282.75 163.533 1276.03 177.347 1262.59 187.24C1249.15 196.947 1231.61 201.8 1209.95 201.8Z" fill="#F6F6F6"/>
</svg>
