<svg viewBox="0 0 135 17" fill="none" xmlns="http://www.w3.org/2000/svg">
<path d="M8.41036 16.4719C7.32749 16.4719 6.37864 16.3808 5.56381 16.1985C4.74898 16.0055 4.04672 15.7535 3.45704 15.4426C2.86736 15.1317 2.37954 14.7725 1.99357 14.3651C1.60759 13.9577 1.29667 13.5342 1.0608 13.0946C0.835648 12.6443 0.674827 12.194 0.578333 11.7437C0.48184 11.2827 0.433594 10.8538 0.433594 10.4571V10.0068C0.433594 9.62088 0.471119 9.2081 0.546169 8.76852C0.631941 8.31822 0.782041 7.87328 0.99647 7.4337C1.22162 6.99412 1.52182 6.57598 1.89707 6.17929C2.28304 5.77187 2.77623 5.4127 3.37663 5.10178C3.97703 4.79086 4.70073 4.54427 5.54773 4.362C6.39472 4.17974 7.39182 4.08861 8.53901 4.08861H9.23055C10.3456 4.08861 11.3159 4.16366 12.1414 4.31376C12.967 4.46386 13.6692 4.6622 14.2482 4.9088C14.8271 5.15539 15.3043 5.43951 15.6795 5.76115C16.0548 6.07207 16.3496 6.39372 16.564 6.72608C16.7785 7.05845 16.9286 7.39081 17.0143 7.72318C17.1001 8.05554 17.1483 8.35574 17.1591 8.62378V8.63986H13.1707C13.1492 8.57553 13.0903 8.45224 12.9938 8.26997C12.8973 8.07699 12.6989 7.884 12.3987 7.69101C12.1093 7.48731 11.6858 7.3104 11.1282 7.1603C10.5815 7.0102 9.84167 6.93515 8.9089 6.93515C7.99758 6.93515 7.24708 7.02628 6.6574 7.20855C6.06772 7.39081 5.60134 7.63205 5.25825 7.93225C4.92588 8.23245 4.69001 8.57553 4.55063 8.96151C4.42198 9.34748 4.35765 9.74953 4.35765 10.1677V10.3446C4.35765 10.7305 4.43806 11.1165 4.59888 11.5025C4.7597 11.8885 5.01702 12.2369 5.37082 12.5478C5.73535 12.848 6.20174 13.0946 6.76997 13.2876C7.34893 13.4699 8.05119 13.561 8.87674 13.561C9.76662 13.561 10.5064 13.4913 11.0961 13.3519C11.6965 13.2018 12.1736 13.0303 12.5274 12.8373C12.8812 12.6443 13.1332 12.4567 13.2833 12.2744C13.4334 12.0814 13.5084 11.9421 13.5084 11.8563V11.8241H8.81241V9.55655H17.2395V16.2628H14.988C14.9772 16.1556 14.9558 16.0216 14.9236 15.8608C14.8915 15.6999 14.854 15.5338 14.8111 15.3622C14.7682 15.18 14.7199 15.0084 14.6663 14.8476C14.6127 14.676 14.5591 14.5259 14.5055 14.3973C14.3768 14.5474 14.1785 14.7404 13.9105 14.9762C13.6424 15.2121 13.2779 15.4426 12.8169 15.6678C12.3666 15.8822 11.8037 16.0698 11.1282 16.2307C10.4635 16.3915 9.67013 16.4719 8.74808 16.4719H8.41036Z" fill="black"/>
<path d="M27.5818 4.08861C28.8362 4.08861 29.9137 4.1851 30.8143 4.37808C31.7149 4.57107 32.4762 4.82839 33.098 5.15003C33.7306 5.47167 34.2345 5.84156 34.6097 6.2597C34.985 6.66712 35.2745 7.09061 35.4782 7.53019C35.6926 7.95905 35.832 8.39327 35.8963 8.83285C35.9606 9.26171 35.9928 9.65304 35.9928 10.0068V10.4893C35.9928 10.8431 35.9606 11.2345 35.8963 11.6633C35.832 12.0922 35.698 12.5318 35.4943 12.9821C35.2906 13.4216 34.9957 13.8505 34.6097 14.2686C34.2345 14.6868 33.7359 15.062 33.1141 15.3944C32.4923 15.716 31.7257 15.9787 30.8143 16.1824C29.9137 16.3754 28.8362 16.4719 27.5818 16.4719H26.8903C25.6252 16.4719 24.5369 16.3754 23.6256 16.1824C22.725 15.9787 21.9638 15.716 21.3419 15.3944C20.7201 15.062 20.2162 14.6868 19.8302 14.2686C19.455 13.8505 19.1655 13.4216 18.9618 12.9821C18.7581 12.5318 18.6241 12.0922 18.5597 11.6633C18.4954 11.2345 18.4632 10.8431 18.4632 10.4893V10.0068C18.4632 9.65304 18.4954 9.26171 18.5597 8.83285C18.6241 8.39327 18.7581 7.95905 18.9618 7.53019C19.1655 7.09061 19.455 6.66712 19.8302 6.2597C20.2162 5.84156 20.7201 5.47167 21.3419 5.15003C21.9638 4.82839 22.725 4.57107 23.6256 4.37808C24.5369 4.1851 25.6252 4.08861 26.8903 4.08861H27.5818ZM32.0688 10.1194C32.0688 9.77634 32.0044 9.42253 31.8758 9.058C31.7578 8.68275 31.522 8.34502 31.1682 8.04482C30.8143 7.7339 30.3212 7.48195 29.6886 7.28896C29.056 7.08525 28.2358 6.9834 27.228 6.9834C26.1988 6.9834 25.3678 7.08525 24.7353 7.28896C24.1027 7.48195 23.6095 7.7339 23.2557 8.04482C22.9126 8.34502 22.6821 8.68275 22.5642 9.058C22.4462 9.42253 22.3873 9.77634 22.3873 10.1194V10.3124C22.3873 10.6555 22.4462 11.02 22.5642 11.406C22.6928 11.7812 22.9341 12.1297 23.2879 12.4513C23.6417 12.773 24.1349 13.041 24.7674 13.2554C25.4 13.4592 26.2202 13.561 27.228 13.561C28.2358 13.561 29.0507 13.4592 29.6725 13.2554C30.3051 13.0517 30.7983 12.7944 31.1521 12.4835C31.5059 12.1619 31.7471 11.8134 31.8758 11.4382C32.0044 11.0522 32.0688 10.6877 32.0688 10.3446V10.1194Z" fill="black"/>
<path d="M37.3365 4.29767H45.2651C46.423 4.29767 47.4308 4.37808 48.2885 4.53891C49.157 4.68901 49.9021 4.89808 50.5239 5.16611C51.1565 5.43415 51.6765 5.75043 52.0839 6.11496C52.4913 6.47949 52.813 6.87618 53.0488 7.30504C53.2954 7.72318 53.467 8.1574 53.5635 8.6077C53.66 9.058 53.7082 9.5083 53.7082 9.9586V10.4411C53.7082 10.8699 53.66 11.3149 53.5635 11.7759C53.4777 12.2262 53.3169 12.6658 53.081 13.0946C52.8451 13.5235 52.5235 13.9309 52.1161 14.3169C51.7087 14.7028 51.194 15.0406 50.5722 15.3301C49.9503 15.6195 49.2052 15.85 48.3368 16.0216C47.4683 16.1824 46.4498 16.2628 45.2811 16.2628H37.3365V4.29767ZM41.0837 13.3841H44.9756C46.037 13.3841 46.884 13.2823 47.5166 13.0785C48.1491 12.8641 48.6316 12.6068 48.964 12.3066C49.307 11.9957 49.5268 11.6633 49.6233 11.3095C49.7305 10.945 49.7842 10.6073 49.7842 10.2963V10.1998C49.7842 9.89963 49.7359 9.57263 49.6394 9.21882C49.5429 8.85429 49.3285 8.51657 48.9961 8.20564C48.6638 7.89472 48.1759 7.63741 47.5326 7.4337C46.9001 7.22999 46.0477 7.12814 44.9756 7.12814H41.0837V13.3841Z" fill="black"/>
<path d="M62.3066 16.4397C61.2345 16.4397 60.3071 16.3379 59.5244 16.1342C58.7418 15.9197 58.0717 15.641 57.5142 15.2979C56.9674 14.9548 56.5171 14.5635 56.1633 14.1239C55.8202 13.6736 55.5468 13.2179 55.3431 12.7569C55.1501 12.2852 55.0161 11.8188 54.941 11.3578C54.8767 10.8967 54.8445 10.4786 54.8445 10.1033V4.29767H58.6077V9.87819C58.6077 10.2642 58.6614 10.6609 58.7686 11.0683C58.8758 11.4757 59.0741 11.8509 59.3636 12.194C59.6531 12.5264 60.0551 12.7998 60.5698 13.0142C61.0844 13.2286 61.7491 13.3359 62.564 13.3359C63.3681 13.3359 64.0221 13.2286 64.526 13.0142C65.0406 12.7998 65.4427 12.5264 65.7322 12.194C66.0216 11.8509 66.22 11.4757 66.3272 11.0683C66.4344 10.6609 66.488 10.2642 66.488 9.87819V4.29767H70.2352V10.1033C70.2352 10.4786 70.1923 10.8967 70.1065 11.3578C70.0315 11.8188 69.8921 12.2852 69.6884 12.7569C69.4847 13.2179 69.2059 13.6736 68.8521 14.1239C68.509 14.5635 68.0641 14.9548 67.5173 15.2979C66.9705 15.641 66.3165 15.9197 65.5553 16.1342C64.794 16.3379 63.9041 16.4397 62.8856 16.4397H62.3066Z" fill="black"/>
<path d="M76.1009 4.29767L83.7399 11.8241V4.29767H87.4388V16.2628H83.7399L75.6184 8.3343V16.2628H71.9195V4.29767H76.1009Z" fill="black"/>
<path d="M97.91 4.08861C99.1644 4.08861 100.242 4.1851 101.142 4.37808C102.043 4.57107 102.804 4.82839 103.426 5.15003C104.059 5.47167 104.563 5.84156 104.938 6.2597C105.313 6.66712 105.603 7.09061 105.806 7.53019C106.021 7.95905 106.16 8.39327 106.224 8.83285C106.289 9.26171 106.321 9.65304 106.321 10.0068V10.4893C106.321 10.8431 106.289 11.2345 106.224 11.6633C106.16 12.0922 106.026 12.5318 105.822 12.9821C105.619 13.4216 105.324 13.8505 104.938 14.2686C104.563 14.6868 104.064 15.062 103.442 15.3944C102.82 15.716 102.054 15.9787 101.142 16.1824C100.242 16.3754 99.1644 16.4719 97.91 16.4719H97.2184C95.9533 16.4719 94.8651 16.3754 93.9538 16.1824C93.0531 15.9787 92.2919 15.716 91.6701 15.3944C91.0482 15.062 90.5443 14.6868 90.1584 14.2686C89.7831 13.8505 89.4936 13.4216 89.2899 12.9821C89.0862 12.5318 88.9522 12.0922 88.8879 11.6633C88.8235 11.2345 88.7914 10.8431 88.7914 10.4893V10.0068C88.7914 9.65304 88.8235 9.26171 88.8879 8.83285C88.9522 8.39327 89.0862 7.95905 89.2899 7.53019C89.4936 7.09061 89.7831 6.66712 90.1584 6.2597C90.5443 5.84156 91.0482 5.47167 91.6701 5.15003C92.2919 4.82839 93.0531 4.57107 93.9538 4.37808C94.8651 4.1851 95.9533 4.08861 97.2184 4.08861H97.91ZM102.397 10.1194C102.397 9.77634 102.333 9.42253 102.204 9.058C102.086 8.68275 101.85 8.34502 101.496 8.04482C101.142 7.7339 100.649 7.48195 100.017 7.28896C99.3842 7.08525 98.564 6.9834 97.5562 6.9834C96.5269 6.9834 95.696 7.08525 95.0634 7.28896C94.4308 7.48195 93.9377 7.7339 93.5839 8.04482C93.2408 8.34502 93.0103 8.68275 92.8923 9.058C92.7744 9.42253 92.7154 9.77634 92.7154 10.1194V10.3124C92.7154 10.6555 92.7744 11.02 92.8923 11.406C93.021 11.7812 93.2622 12.1297 93.616 12.4513C93.9698 12.773 94.463 13.041 95.0956 13.2554C95.7281 13.4592 96.5483 13.561 97.5562 13.561C98.564 13.561 99.3788 13.4592 100.001 13.2554C100.633 13.0517 101.126 12.7944 101.48 12.4835C101.834 12.1619 102.075 11.8134 102.204 11.4382C102.333 11.0522 102.397 10.6877 102.397 10.3446V10.1194Z" fill="black"/>
<path d="M111.899 16.2628L105.676 4.29767H109.921L114.328 13.0946L118.461 4.29767H122.353L116.563 16.2628H111.899Z" fill="black"/>
<path d="M131.816 4.30176L132.488 5.55859H131.231L130.735 4.61377H130.555V5.55859H129.386V2.13965H131.003C131.398 2.13965 131.722 2.25684 131.974 2.49121C132.229 2.72559 132.356 3.01416 132.356 3.35693C132.356 3.55615 132.311 3.73486 132.22 3.89307C132.129 4.05127 132.038 4.15674 131.948 4.20947L131.816 4.30176ZM130.555 3.17676V3.625H130.871C131.05 3.625 131.139 3.55029 131.139 3.40088C131.139 3.25146 131.05 3.17676 130.871 3.17676H130.555ZM129.078 5.59375C129.564 6.08008 130.146 6.32324 130.823 6.32324C131.502 6.32324 132.085 6.08008 132.572 5.59375C133.058 5.10449 133.301 4.52441 133.301 3.85352C133.301 3.17969 133.058 2.59814 132.572 2.10889C132.085 1.61963 131.502 1.375 130.823 1.375C130.146 1.375 129.564 1.61963 129.078 2.10889C128.592 2.59814 128.348 3.17969 128.348 3.85352C128.348 4.52441 128.592 5.10449 129.078 5.59375ZM133.292 6.24854C132.63 6.89893 131.807 7.22412 130.823 7.22412C129.841 7.22412 129.018 6.89893 128.353 6.24854C127.691 5.59814 127.36 4.7998 127.36 3.85352C127.36 2.9043 127.691 2.10449 128.353 1.4541C129.018 0.800781 129.841 0.474121 130.823 0.474121C131.807 0.474121 132.63 0.800781 133.292 1.4541C133.957 2.10449 134.29 2.9043 134.29 3.85352C134.29 4.7998 133.957 5.59814 133.292 6.24854Z" fill="black"/>
</svg>
